<!-- Generator: Adobe Illustrator 19.0.0, SVG Export Plug-In  -->
<svg version="1.1"
	 xmlns="http://www.w3.org/2000/svg" xmlns:xlink="http://www.w3.org/1999/xlink" xmlns:a="http://ns.adobe.com/AdobeSVGViewerExtensions/3.0/"
	 x="0px" y="0px" width="789.7px" height="682.1px" viewBox="0 0 789.7 682.1" style="enable-background:new 0 0 789.7 682.1;"
	 xml:space="preserve">
<style type="text/css">
	.st0{fill:#F4B913;}
	.st1{fill:#F4B812;}
	.st2{fill:#F4B915;}
	.st3{fill:#EAA316;}
	.st4{fill:#F6C744;}
	.st5{fill:#F6C743;}
	.st6{fill:#F6C847;}
	.st7{fill:#F4BA19;}
	.st8{fill:#E99F14;}
	.st9{fill:#EAA115;}
	.st10{fill:#EAA215;}
	.st11{fill:#22A465;}
	.st12{fill:#F4B914;}
	.st13{fill:#EFAE14;}
	.st14{fill:#EDAA15;}
	.st15{fill:#F1B114;}
	.st16{fill:#EEAC14;}
	.st17{fill:#F0B014;}
	.st18{fill:#F2B413;}
	.st19{fill:#F2B314;}
	.st20{fill:#F6C641;}
	.st21{fill:#F4B916;}
	.st22{fill:#27A668;}
	.st23{fill:#F6C741;}
	.st24{fill:#F4BA18;}
	.st25{fill:#F4BA17;}
	.st26{fill:#23A466;}
	.st27{fill:#F7F7F7;}
	.st28{fill:#21A364;}
	.st29{fill:#64BF92;}
	.st30{fill:#F1F1F1;}
	.st31{fill:#65C093;}
	.st32{fill:#CFA21F;}
	.st33{fill:#D1A420;}
	.st34{fill:#ECA815;}
	.st35{fill:#EBA315;}
	.st36{fill:#EBA615;}
	.st37{fill:#EEB443;}
	.st38{fill:#24A466;}
	.st39{fill:#25A567;}
	.st40{fill:#26A568;}
	.st41{fill:#D0A422;}
	.st42{fill:#CEA220;}
	.st43{fill:#66C094;}
</style>
<defs>
</defs>
<g id="Logo_1_">
	<path class="st0" d="M788.9,47.1c0.3,2.8,0.7,5.6,0.7,8.4c0.1,191.5,0.1,382.9,0.1,574.4c0,1.8-0.5,3.6-0.7,5.4
		c-2.3-2.4-1.5-5.3-1.5-8.1c-0.1-47.8,0-95.6,0-143.4c0-1.6,0.1-3.3-0.2-5.6c-16.7,27.3-34.3,53-53.2,77.9
		c-4,5.3-8.1,10.6-12.5,15.6c-1,1.1-2.1,4.2-4.6,1.3c-0.7-1.8-0.5-3.6-0.5-5.4c0-76.9,0-153.9,0-230.8c0-0.8,0-1.7,0.2-2.5
		c7.5-17.8,15.2-35.5,21.9-53.6c18.2-49.1,31.2-99.4,39-151.2c3.4-22.4,6-44.9,7.1-67.5c0.2-4.3,0.9-8.6,0.9-12.9
		c0-1.5,0.1-3,1.4-4.1C788.8,44.6,787.9,46.7,788.9,47.1z"/>
	<path class="st1" d="M717.9,574.1c25.9-31.3,48.7-64.8,71-99.1c0,53.4,0,106.9,0,160.3c-0.3,1.7-0.6,3.4-0.9,5.1
		c-2.4,4.7-3.6,9.9-6.7,14.2c-10.6,14.6-24.7,23-42.9,24c-14.3-0.1-28.5,0.2-42.7-0.2c-3.6-0.8-5.5-4-8-6.2c-0.5-0.5-1-1-1.5-1.6
		c-2.2-2.3-4.5-4.5-6.8-6.8c-2-2.1-4-4.1-6.1-6.1c-2-2.1-4-4.1-6.1-6.1c-2.9-3.5-7.2-5.9-8.8-10.5c0-0.5,0-1,0.2-1.4
		c7.1-7.8,13.9-15.8,21.6-23.1c1.2-1.1,2.4-2.2,4.1-2.6c8.9-0.8,17.8-0.2,26.7-0.4c2.8-0.1,5.4-0.3,5.3-4.1c0.1-9.8,0-19.5,0.1-29.3
		C716.5,578,716.1,575.8,717.9,574.1z"/>
	<path class="st2" d="M1.7,640.3c-0.3-1.7-0.6-3.4-0.9-5c-0.6-1.1-0.4-2.3-0.4-3.4c0-36.5,0-73.1,0-109.6c0-0.7,0-1.3,0.2-2
		c1.7-1.9,3.9-1.6,6-1.4c19.7,1.7,39.3,0.3,59-0.9c2.3-0.2,4.6-0.5,6.7,1.1c1.5,2.2,1.1,4.8,1.1,7.3c0,27.6,0,55.1,0,82.7
		c0,1.5,0.1,2.9,1.4,4c2.1,1.4,4.5,0.8,6.8,0.8c46.2,0,92.5,0,138.7,0c2.6,0,5.3-0.4,7.9,0.6c1.8,3.8-1.9,3.5-3.5,4.1
		c-9.7,3.5-19.6,6.4-29.6,9.1c-35.1,9.6-70.7,16.2-106.9,19.7c-13.4,1.3-26.8,2.5-40.3,2.4c-7.5-0.1-14.9,1.1-22.4,1
		c-5.8-0.1-11.6-1-17.4-1.1c-2.7,0.3-3.3-1.8-4-3.6C3.2,644.1,2.9,642,1.7,640.3z"/>
	<path class="st3" d="M1.7,640.3c1.7,2.9,3.5,5.8,5.2,8.8c1.9,0.6,2.8,2.3,3.9,3.7c11.1,15.2,25.8,22.8,44.8,22.8
		c115.2-0.2,230.4,0,345.6-0.1c1,0,2,0,3,0.1c37.3-0.3,74.5-0.1,111.8-0.1c5.7,0,11.3-0.1,17,0.2c50.9,0,101.9-0.2,152.8-0.2
		c2.8,0,5.7,0,8.2,1.6c15.3,0,30.7,0,46,0c-1.3,3.4-4.3,2.5-6.7,2.5c-12.4,0.1-24.9,0.1-37.3,0c-52.9,0.3-105.8-0.2-158.7-0.1
		c-1,0-2,0-3,0c-41,0.2-82,0.1-123,0.1c-5.6,0-11,0.6-16.2,2.3c-1.3,0.1-2.7,0.2-4,0.2c-112.5,0-225.1,0-337.6,0
		c-23.2,0-44.2-15.7-50.9-37.8C2,643,1.9,641.6,1.7,640.3z"/>
	<path class="st4" d="M275.8,0.3c1.7-0.1,3.3-0.2,5-0.2c124.7,0,249.4,0,374,0c1.7,0,3.3,0.1,5,0.2c1.7,2.9,0.4,4.4-2.4,5
		c-1.8,0.4-3.7,0.2-5.5,0.2c-122.9,0-245.9,0-368.8,0c-2.3,0-4.7,0.3-6.9-0.8C274.7,3.4,274.6,1.9,275.8,0.3z"/>
	<path class="st5" d="M275.8,4.1c126,0,251.9,0,377.9,0c2.6,0,6.6,1.5,6.1-3.8c26.6,0,53.3-0.6,79.9,0c24.9,0.6,48.5,23.7,49.1,46.8
		c-0.4-0.7-0.7-1.3-1.1-2c-3.2-2.9-3.9-7.2-5.9-10.8c-8.2-15-20.5-24-37.3-27.2c-2.6-0.5-5.3-0.5-7.9-0.5c-25.9,0-51.8,0-77.8,0
		c-42.4,0.2-84.7,0.2-127,0c-35.2,0.3-70.3,0.1-105.5,0.1c-7.5,0-15,0.2-22.5-0.1c-35.5,0.3-71.1,0.1-106.6,0.1
		c-6.8,0-13.6,0.2-20.4-0.1c-35.5,0.3-71,0.1-106.5,0.1c-7.2,0-14.3,0.2-21.5-0.1c-31.6,0.3-63.2,0.1-94.8,0.1
		c-1.8,0-3.7-0.1-5.2-1.4c0-2.4,2-2.3,3.5-2.6c2-0.4,4-0.2,6-0.2c69.4,0,138.9,0,208.3,0C269.8,2.5,273.1,1.8,275.8,4.1z"/>
	<path class="st6" d="M275.8,4.1c-73.6,0-147.2,0-220.8,0c-2.1,0-4.1,0.6-6.2,0.9c-4.5,3.1-10.3,2.5-15,5c-5.4,2-10,5.4-14.5,8.9
		C10.4,26.4,5.7,36.4,2.1,47.1c-0.4,0.3-0.9,0.3-1.3,0C1.2,29.9,15.5,10.8,33.5,4.2c6-2.2,12.6-3.9,18.9-3.9
		C125.9,0,199.4,0.1,272.9,0.1c1,0,2,0.1,3,0.2C275.8,1.5,275.8,2.8,275.8,4.1z"/>
	<path class="st7" d="M0.8,47.1c0.3,0,0.7,0,1,0c0.7,0.8,1,1.7,0.9,2.8C2,78.3,2.8,106.7,2.3,135.1c0.3,34.1,0.1,68.3,0.1,102.4
		c0,8.8,0.2,17.7-0.1,26.5c0.3,35.2,0.1,70.4,0.1,105.6c0,7.5,0.2,14.9-0.1,22.4c0.3,32.3,0.1,64.6,0.1,96.9c0,8.2,0,16.3,0,24.5
		c0,2.3,0.1,4.7-1.6,6.6c0,38.4-0.1,76.8-0.1,115.2c-0.3-1.8-0.8-3.6-0.8-5.4C0,438.5,0,247,0.1,55.5C0.1,52.7,0.6,49.9,0.8,47.1z"
		/>
	<path class="st8" d="M533.8,678.1c54,0,108,0,162,0c1.2,1.1,3.5,1.4,3,3.8c-28,0-56,0-84,0c-4.3-0.8-8.6-0.3-12.9-0.3
		c-20.9-0.1-41.9,0-62.8,0C536.5,681.6,533.9,681.7,533.8,678.1z"/>
	<path class="st9" d="M533.8,678.1c1.3,1,2.7,2,4,3c0.3,0.2,0.4,0.4,0.3,0.6c-0.1,0.2-0.2,0.3-0.3,0.3c-26.2,0.1-52.3,0.1-78.5,0.2
		c-21.5,0-43-0.1-64.5-0.2c4.2-1.3,8.3-3.6,12.5-3.7C449.5,678,491.7,678.1,533.8,678.1z"/>
	<path class="st10" d="M698.8,681.9c-1-1.3-2-2.6-3-3.8c12.9,0,25.9,0,38.8,0c1.7,0,3.4-0.6,5.2-0.9c18.3-0.5,38.6-14.8,45.1-31.7
		c0.7-1.8,1.5-3.6,2.3-5.4c0-0.1,0.3,0,0.5,0c0.1,0.1,0.2,0.2,0.4,0.3c-2.8,19.2-21,37.4-42,40.6c-9.4,1.4-19.2,0.9-28.8,1.1
		C711.1,682.2,705,682,698.8,681.9z"/>
	<path class="st9" d="M537.8,681.9c0-0.3,0-0.6,0-0.8c23.9,0,47.8,0,71.7,0c1.8,0,3.5,0.5,5.2,0.8
		C589.1,681.9,563.5,681.9,537.8,681.9z"/>
	<path class="st11" d="M717.9,574.1c-0.1,11.9-0.1,23.9-0.2,35.8c-0.5,0.4-1,0.4-1.4-0.2c-1.1-2-0.9-4.2-0.9-6.4
		c0-85.6,0-171.2,0-256.8c0-1.6-0.2-3.2,0.6-5.2c-27.1,57-60.3,109.5-100,157.9c-20.6,25.2-43,48.6-66.3,71.3c-2,2-4.3,3.7-7,4.7
		c-3,0.7-6,0.5-9,0.5c-19.6,0-39.3,0-58.9,0c-6.2,0-6.5,0.4-6.5,6.5c-0.1,7.2,0,14.3,0,21.5c0,2.3,0.1,4.7-1.5,6.7
		c-2.2,1.6-4.7,1.4-7.2,1.4c-68.9,0-137.9,0-206.8,0c-1.7,0-3.3,0-5-0.3c-1.7-0.6-3.5-1.3-0.9-3.2c1.1-0.8,2.4-1.1,3.7-1.6
		c23.2-9,46-18.7,68-30.3c41.1-21.7,79.7-47.1,115.1-77.2c11.4-9.7,22.8-19.5,33.2-30.3c1.3-1.3,2.7-2.5,4.6-2.9
		c15.9-0.8,31.8-0.2,47.6-0.3c34.1,0.2,68.2,0.1,102.3,0.1c5.1,0,5.8-0.8,5.9-5.8c0.1-5.8,0-11.7,0-17.5
		c0.1-14.2-6.5-24.8-17.5-33.1c-15.7-11.8-33.8-17.5-53-20.6c-3.6-0.6-7.2-1-10.9-1.4c-5.5-2.1-5.9-3-2.6-7.7
		c6.8-9.5,13.2-19.2,19.3-29.1c7.5-7.4,12.4-16.3,15.4-26.3c27.8-49.8,48.5-102.5,62.1-157.9c7.3-29.6,12.4-59.6,15.2-90
		c0.2-2,0.1-4.1,2.3-5.1c2.1-0.7,4.3-0.6,6.4-0.7c15.4,0,30.8,0,46.2,0c2.6,0,5.3-0.3,7.7,1.4c1.6,2.2,1.4,4.8,1.4,7.2
		c0,81.4,0,162.8,0,244.2c0,3.4-0.4,6.6-1.6,9.8c-0.1,1.3-0.2,2.7-0.2,4c0,77.7,0,155.4,0,233.1
		C717.7,571.4,717.8,572.8,717.9,574.1z"/>
	<path class="st12" d="M717.9,333.1c-0.1-2.2-0.2-4.3-0.2-6.5c0-84.8,0-169.5,0-254.3c-0.7-1.2-1.5-2.2-2.5-3.1
		c-1.9-1.1-3.9-0.7-5.9-0.7c-15,0-29.9,0-44.9,0c-2.3,0-4.7,0.4-6.8-1.1c-1.1-1.4-1.4-3.1-1.2-4.7c1.5-17.6,2.1-35.2,1.9-52.9
		c0-1.7,0.3-3.3,1.5-4.6c25.8,0,51.6-0.2,77.5,0c20.2,0.2,35,10,45.1,27.2c2.3,4,3.6,8.5,5.4,12.8c-0.6,5.4-1.5,10.7-1.9,16.1
		c-0.8,10.4-1.2,20.8-2.1,31.2c-1.1,11-2,22.1-4.1,32.9c-5.5,28.4-10.9,56.8-17.6,84.9c-8.1,34.1-20,67-33.5,99.4
		C725.2,317.5,721.5,325.3,717.9,333.1z"/>
	<path class="st13" d="M667.8,651.1c2,2,4,4,6,6c-1.6,1.6-3.6,1.6-5.6,1.6c-50.1,0-100.3,0.1-150.4,0c-0.8,0-1.7-0.2-2.5-0.2
		c-4.6-0.8-7.1-4.5-9.9-7.7c-1-1.2-1.5-2.7,0.6-3.6c2.4-0.8,4.9-0.6,7.4-0.6c42.8,0,85.5,0,128.3,0c3.7,0,7.3-0.1,10.6,2.1
		c2,1.3,4.5,0.8,6.8,0.9C662.1,649.5,665.2,649.3,667.8,651.1z"/>
	<path class="st14" d="M658.8,640.1c0,0.3,0,0.7,0,1c-0.3,2.3-2.2,2.2-3.7,2.4c-1.8,0.3-3.7,0.2-5.5,0.2c-47.5,0-95,0-142.5,0
		c-2.3,0-4.7,0-7-0.3c-3.3-0.5-5.4-2.8-7.4-5.2c-1-1.2-2.2-2.8,0.2-4c1.7-0.7,3.6-0.7,5.4-0.7c49.7,0,99.5,0,149.2,0
		c0.8,0,1.7,0.1,2.5,0.1C654.7,633.4,657,636.4,658.8,640.1z"/>
	<path class="st15" d="M679.8,663.1c2.3,2.3,4.7,4.7,7,7c-1.6,1.7-3.7,1.4-5.6,1.4c-49.5,0-99.1,0.4-148.6,0.2c-1.5,0-3-0.1-4.5-0.3
		c-3.4-0.5-5.5-2.8-7.4-5.3c-1-1.3-2.1-2.8,0.3-4c2.1-0.8,4.3-0.7,6.4-0.7c48.1,0,96.2,0,144.2,0
		C674.5,661.5,677.3,661.4,679.8,663.1z"/>
	<path class="st16" d="M498.8,642.1c51.4,0,102.9,0,154.3,0c1.9,0,3.8-0.6,5.7-1c3,3.3,6,6.7,9,10c-3.5,0-7,0.2-10.5-0.1
		c-2.7-0.2-6.3,1.9-7.9-2.6c-0.2-0.5-2.8-0.3-4.3-0.3c-46.8,0-93.6,0-140.4,0C501.2,647.7,499.2,645.7,498.8,642.1z"/>
	<path class="st17" d="M679.8,663.1c-53.3,0-106.7,0-160,0c-3.6-0.4-5.6-2.4-6-6c53.3,0,106.7,0,160,0
		C675.8,659.1,677.8,661.1,679.8,663.1z"/>
	<path class="st18" d="M693.8,677.1c-53.7,0-107.3,0-161,0c-1.3-1.1-4-2-0.7-4c2.4-0.8,4.9-0.6,7.4-0.6c20,0,39.9,0.4,59.9-0.1
		c27.7-0.7,55.4-2.5,83.1-1.8c1.8,0.1,3.7-0.5,5.4,0.5C689.8,673.1,691.8,675.1,693.8,677.1z"/>
	<path class="st0" d="M658.8,640.1c-2.3-2-4.7-4-7-6c-3.4,0.2-4.5-2.8-6.5-4.6c-1.7-2.8-4-5-6.7-6.8c-1.9-1.4-3.2-3.3-4.4-5.3
		c-0.9-1.6-0.7-2.8,1.2-3.4c14.6-1,29.2-0.4,43.8-0.3c1.3,0,2.6,0.4,3.6,1.5C674.8,623.4,666.8,631.8,658.8,640.1z"/>
	<path class="st19" d="M687.8,671.1c-18.6,0-37.3-0.1-55.9,0.1c-2.5,0-5,1.2-7.5,1.8c-1.9,0.4-3.8,1-5.7,1c-29.3,0.1-58.6,0-87.8,0
		c-2.8,0.1-4.1-1.2-4-4c53.3,0,106.7,0,160,0C687.2,670.4,687.5,670.8,687.8,671.1z"/>
	<path class="st20" d="M682.8,615.1c-16.3,0-32.7,0-49,0c-0.5,0.3-1,0.4-1.5,0.2c-1.7-1.5-4.4-2.5-3.1-5.7c0.5-0.3,1.1-0.6,1.7-0.7
		c9.3-0.7,18.6-0.3,27.9-0.3c17-0.1,33.9,0,50.9,0c2.5,0,5-0.3,7.2,1.3c0.3,0.1,0.6,0.1,0.9,0.1c1,4.3-1,5.4-5,5.3
		C702.7,614.9,692.8,615.1,682.8,615.1z"/>
	<path class="st12" d="M403.8,677.1c-117.3,0-234.6,0.1-351.9-0.1c-20.2,0-35.3-10.1-45.1-27.9c1.9-0.3,3.8-0.9,5.7-0.9
		c18-0.4,36-0.5,54-1.1c8.9-0.3,17.8-1,26.7-2.1c13.4-1.5,27-2.8,40.2-5.5c23-4.6,45.8-10,68.6-15.6c9.1-2.2,17.9-5.9,26.8-8.8
		c1.7-1.8,4-1.4,6.1-1.4c78,0,155.9-0.1,233.9,0c0.6,0,1.2,0.1,1.7,0.2c2.9,0.9,4.6,3.5,6.8,5.4c1.6,2.3,4.9,3.5,4.7,7
		c-6.4,6.1-13.9,10.7-21.1,15.7c-15.8,11-32,21.3-48.6,31.1C409.6,674.8,406.8,676.2,403.8,677.1z"/>
	<path class="st21" d="M0.9,520.1c0-42.7,0-85.3,0-128c1.4-1.2,3-1.2,4.7-1.1c19.4,1.1,38.7,0.9,58.1-1.2c2.9-0.3,6-0.8,8.6,1.3
		c1.3,1.9,1,4.2,1,6.3c0,38.4,0,76.8,0,115.2c0,2.3,0.5,4.7-1.4,6.6c-18.7,0.7-37.4,1.4-56.1,1.9C10.8,521.1,5.8,520.4,0.9,520.1z"
		/>
	<path class="st22" d="M71.8,519.1c0.1-19.4,0.2-38.8,0.2-58.3c0-23.2-0.1-46.5-0.2-69.7c-1.6-1.8-1.5-4-1.5-6.1
		c0-41.3-0.2-82.5,0.1-123.8c-0.2-44-0.2-88,0-132c-0.2-17.2-0.1-34.3-0.1-51.5c0-2,0-4,1.3-5.8c1.5-1.3,3.4-1.4,5.2-1.4
		c17.8-0.1,35.6-0.1,53.5,0c1.3,0,2.7,0.2,3.9,0.7c2.8,2.2,0.7,4.3-0.3,6.1c-6.5,12-15.1,22.3-25.3,31.2
		c-8.5,7.3-17.6,13.8-27.9,18.2c-4.9,2.1-6.3,5.3-6.3,10.5c0.2,41.6,0.1,83.2,0.1,124.8c0.2,42.7,0.2,85.4,0,128
		c0.3,34.8,0.1,69.6,0.1,104.4c0,8.2,0.2,16.3-0.1,24.5c0.3,28.7,0.1,57.3,0.1,86c0,1.5-0.1,3-0.8,4.4c-0.4,0.7-0.9,0.9-1.6,0.6
		C71.9,579.6,71.8,549.4,71.8,519.1z"/>
	<path class="st4" d="M72,609.9c0.3,0,0.6,0,0.9-0.1c2-1.5,4.4-1.4,6.7-1.4c53.2,0,106.5,0,159.7,0c2.3,0,4.7-0.3,6.7,1.4
		c1.8,0.1,3.7,0.2,5.5,0.2c69.8,0,139.6,0,209.3,0c2,0,4-0.1,6-0.2c0.3,0.1,0.6,0.1,0.9,0.2c1.4,0.9,2.7,1.9,2.3,3.7
		c-0.2,1-1.3,0.6-2,0.7c-130,0-260,0-390.1,0c-2,0-4,0.5-5.9-0.5C71.9,612.7,71.9,611.3,72,609.9z"/>
	<path class="st23" d="M71.9,614.1c132.6,0,265.3,0,397.9,0c0.9-0.3,1.2,0.1,1,0.9c-80.7,0-161.3,0.1-242,0.1
		c-50.4,0-100.9,0-151.3-0.1C75.7,615,73.8,614.4,71.9,614.1z"/>
	<path class="st0" d="M403.8,677.1c18.4-11.7,36.9-23.3,55.2-35.2c7.8-5,15.2-10.5,22.8-15.8c2.3-0.7,3.1,1.4,4.5,2.4
		c1.8,2.2,4.5,3.7,5.5,6.6c2.3,2.3,4.7,4.7,7,7c2,2,4,4,6,6c3,3,6,6,9,9c2,2,4,4,6,6c2.3,2.3,4.7,4.7,7,7c1.3,1.3,2.7,2.7,4,4
		c0.7,1,1.3,2,2,3C489.8,677.1,446.8,677.1,403.8,677.1z"/>
	<path class="st7" d="M72,72.3c-0.1,18.9-0.1,37.8-0.2,56.8c-0.8,1.6-2.2,2.4-3.8,2.9c-20.4,7.4-41.3,9.3-62.6,5.1
		c-1.6-0.3-3.2-0.8-4.4-2.1c0-26.9-0.1-53.8,0-80.7c0-2.4,0.6-4.9,1-7.3c1.8-11.9,7.9-21.3,17-29c2.2-0.6,3.2,1.3,4.6,2.3
		c2.2,1.6,4.6,2.1,6.9,0.5c2.2-1.5,3.1-3.8,2.5-6.5c-0.4-1.7-1.5-3.4-0.1-5.2c5.3-1.4,10.7-2.7,16-4.1c33.3,0,66.7,0,100,0.1
		c3,6.3,1.6,13.1,1.2,19.5c-0.7,11.9-3.3,23.6-7.6,34.8c-1.2,3.1-2.1,6.3-4.9,8.4c-2.2,0.9-4.6,0.7-6.9,0.7c-16.8,0-33.5,0-50.3,0
		c-2,0-4-0.4-5.8,0.8C73.5,70.2,72.7,71.2,72,72.3z"/>
	<path class="st24" d="M137.8,67.1c3.1-10.4,7.1-20.7,9-31.3c1.8-10,1.4-20.4,2-30.6c42.7,0,85.3,0,128,0c1.6,1.8,1.5,4,1.5,6.1
		c0.2,17.1-1.6,34.1-4.5,51c-0.3,1.9-0.6,4-2.2,5.4c-1.8,1.1-3.9,0.9-5.8,0.9c-40.6,0-81.2,0-121.9,0
		C141.8,68.5,139.6,68.9,137.8,67.1z"/>
	<path class="st25" d="M271.8,67.1c1-8,2.4-15.9,3-24c0.9-12.7,1.4-25.3,2-38c42.3,0,84.7,0,127,0c2.3,3.5,2.7,7.6,2.3,11.5
		c-1.2,14.4-0.5,28.9-2.8,43.2c-0.5,2.8-0.4,5.7-2.7,7.8c-1.7,1-3.5,0.8-5.4,0.8c-39.1,0-78.2,0-117.3,0
		C275.8,68.5,273.6,68.9,271.8,67.1z"/>
	<path class="st21" d="M400.8,67.1c1-14.8,2.1-29.6,3-44.3c0.3-5.9,0-11.8,0-17.6c42.7,0,85.3,0,128,0c1.5,1.6,1.5,3.6,1.6,5.6
		c0.2,17.2,0.1,34.5-1.9,51.6c-0.2,1.8-0.2,3.7-1.5,5.1c-1.9,1.3-4.1,1-6.3,1c-38.7,0-77.5,0-116.2,0
		C405.2,68.5,402.7,69,400.8,67.1z"/>
	<path class="st2" d="M529.8,67.1c0.7-20.7,1.3-41.3,2-62c42.7,0,85.3,0,128,0c0,4.6,0.1,9.3,0,13.9c-0.6,16-1.3,32-2,48
		c-1.7,1.8-4,1.4-6.1,1.4c-38.6,0-77.2,0-115.8,0C533.8,68.5,531.6,68.9,529.8,67.1z"/>
	<path class="st7" d="M32.8,9.1c0.6,2.5,1.9,5.2,1.4,7.5c-0.5,2.3-2.5,5.4-4.4,5.9c-2.4,0.6-5.4-1-8-2c-1.2-0.4-2-1.6-3.1-2.5
		C23.5,15.1,28.2,12.1,32.8,9.1z"/>
	<path class="st24" d="M0.9,135.1c7.7,1,15.4,3.1,23,2.7c11.9-0.6,23.8-2.7,35.7-4.6c4.2-0.7,8.2-2.7,12.2-4.1
		c0.1,26.7,0.2,53.5,0.2,80.2c0,17.3-0.1,34.5-0.2,51.8c-1.1,2.1-3.1,2.3-5.1,2.7c-19.3,3.7-38.8,3-58.3,2.5
		c-2.6-0.1-5.4-0.4-7.5-2.2C0.9,221.1,0.9,178.1,0.9,135.1z"/>
	<path class="st25" d="M0.9,264.1c14.2,0.3,28.4,1.2,42.6,0.8c9.5-0.3,18.8-2.5,28.3-3.8c0.1,27.7,0.2,55.5,0.2,83.2
		c0,15.6-0.1,31.2-0.2,46.8c-17.7,0.7-35.4,1.5-53.1,1.9c-5.9,0.2-11.9-0.6-17.8-0.9C0.9,349.4,0.9,306.8,0.9,264.1z"/>
	<path class="st26" d="M245.9,609.9c-15.3,0.1-30.6,0.1-45.9,0.2c-40.4,0-80.8,0-121.2,0c-2,0-4-0.2-6-0.2c0-30.2,0-60.5,0.1-90.7
		c1.7-1.9,4-2.1,6.4-2.3c33.2-3.3,65.8-10,97.6-20c25.4-8,50.3-17.5,74-29.7c0.9-0.5,1.8-0.9,2.8-1.1c5.5-0.9,11.1-0.2,16.6-0.5
		c64.2-0.1,128.3,0,192.5,0c2.4,0,5.1-0.4,7.1,1.7c-9.2,8.6-18,17.7-27.6,25.9c-13.6,11.6-27.2,23.3-41.8,33.6
		c-19.8,13.9-40.2,27-60.9,39.5C309.9,584,278.1,597.4,245.9,609.9z"/>
	<path class="st26" d="M563.8,350.9c-6.6,9.9-13.1,19.8-19.7,29.7c-1.4,2.1-3,4.1,0.8,5.4c-1.3,1.6-3.2,1.5-4.9,1.6
		c-13.8-0.8-27.2,2-40.5,5.3c-2,0-3.4-1.2-4.9-2.3c-23.5-17.1-50.3-25.2-78.6-29.1c-5.3-0.7-10.6-0.5-15.8-1.7
		c-2.9-2.3-0.8-4.1,0.7-5.8c8.2-9.4,16.3-18.9,24-28.8c17.7-22.8,33.3-47,47-72.5c20.4-38.1,35.4-78.3,45.5-120.3
		c4.2-17.3,7.4-34.9,9.6-52.6c0.4-3.1-0.1-6.9,3.6-8.8c2.1-0.6,4.3-0.6,6.4-0.6c37.4,0,74.7,0,112.1,0c2.7,0,5.7-0.6,8,1.8
		c-1.7,15.3-2.7,30.6-5.3,45.7c-3.2,18.7-7.2,37.3-11.7,55.8c-7.9,32.1-18.6,63.3-32.1,93.5c-8.4,18.8-18,37-27.1,55.5
		c-0.4,0.9-1.1,1.6-1.7,2.4c-1.8-2-1.2-4.4-1.3-6.7c-0.3-18.6-11.6-32.8-29.9-37.8c-15.9-4.3-34.2,3.2-42.8,17.5
		c-9.2,15.4-7.1,34.6,5.2,47.7c11.4,12.1,30.1,15.4,45.1,8.2C557.9,352.7,560.2,349.9,563.8,350.9z"/>
	<path class="st27" d="M399.8,358.9c29.6,1.4,57.9,8,83.8,22.9c5.3,3.1,10.2,6.8,15.2,10.3c5.2,1.3,7.9,5.7,11.1,9.2
		c4,4.4,7,9.5,9.3,15c2.2,5.8,3.2,11.8,3.1,18c-0.1,8.8,0,17.5-0.1,26.3c0,2.4,0.3,5.1-2.6,6.4c-16.6,0.1-33.2,0.1-49.9,0.2
		c-1-0.1-2-0.2-3-0.2c-65.6,0-131.3,0-196.9,0c-2.6-1-2.5-3.3-2.5-5.4c-0.1-10.6-0.4-21.3,0.1-31.9c0.6-12.7,6.5-23.1,15.3-32.1
		c2.2-2.3,4.5-4.4,7-6.4c22.3-17.7,48.2-26.6,75.8-31.4c9.2-1.6,18.5-2.5,27.9-2.1C395.7,357.8,397.8,357.8,399.8,358.9z"/>
	<path class="st28" d="M716.8,609.8c-18.4,0.1-36.9,0.2-55.3,0.2c-11,0-21.9,0-32.9-0.1c-1.5-1.8-1.3-4.1-1.3-6.2
		c-0.1-6.8,0-13.6,0-20.4c0-7.3-0.4-7.7-7.5-7.7c-22.6,0-45.2,0-67.8,0c-2.8,0-5.7,0.6-8.1-1.6c10.8-10.6,22.1-20.7,32.2-31.9
		c16.8-18.5,33.1-37.5,49.1-56.8c22.3-27,41.7-56.3,59.1-86.6c11.2-19.4,20.8-39.7,31.1-59.7c0.2-0.4,0.6-0.7,1.4-1.5
		C716.8,428.7,716.8,519.3,716.8,609.8z"/>
	<path class="st29" d="M519.7,467c0.3-0.6,0.9-1.2,0.9-1.7c-0.6-16.7,2.6-33.6-3-50c3-6.8,8.5-11.8,12.9-17.6
		c2.9-3.9,5-8.7,9.4-11.5c1.7,0,3.3-0.1,5-0.1c24,1.6,46.5,7.7,66,22.2c11.6,8.6,18.3,19.9,17.9,34.8c-0.2,6.5-0.2,13,0,19.5
		c0.1,3.5-1.3,4.6-4.7,4.6C589.3,467,554.5,467,519.7,467z"/>
	<path class="st30" d="M543.8,574c26.2,0.1,52.4,0.3,78.7,0.1c4.8,0,6.2,1.2,6,6c-0.3,9.9,0,19.9,0,29.9c0,0,0.2,0.1,0.2,0.1
		c-1.9,1.9-4.3,1.6-6.6,1.6c-49.4,0-98.7,0-148.1,0c-2.5,0-5-0.2-7.2-1.6c0,0-0.2-0.2-0.2-0.2c0-10.5,0.1-20.9-0.1-31.4
		c-0.1-3.6,1.1-4.4,4.5-4.4c22.4,0.1,44.8,0.1,67.2,0.1C540.2,574.2,542,574.1,543.8,574z"/>
	<path class="st31" d="M563.8,350.9c-8.2,4.6-16.3,8.4-26.2,8.3c-25.7-0.4-45.1-25.4-38.6-50.2c7.9-29.9,43.4-41,66.6-20.5
		c8.4,7.5,12.9,17.2,13.3,28.6c0.1,2.7,0,5.3,0,8C576.5,335.3,571.3,343.7,563.8,350.9z"/>
	<path class="st32" d="M656.8,72.3c-40.5-0.1-81.1-0.1-121.6-0.2c-2.2,0-4.3,0.1-6.5,0.2c-0.2-0.3-0.3-0.5-0.5-0.8
		c-0.4-2.3,0.5-3.7,2.9-3.9c60.4,0,120.8,0,181.2,0c1.8,0,3.7-0.5,5.4,0.5c0,1.4-0.1,2.8-0.1,4.2C697.4,72.3,677.1,72.3,656.8,72.3z
		"/>
	<path class="st33" d="M717.8,68.1c-62.7,0-125.3,0-188,0c-2,1.4-4.3,1.6-6.7,1.6c-83.4,0-166.8,0-250.3,0c-0.7,0-1.3-0.1-2-0.1
		c-3,0.2-6,0.1-9,0.1c-60.3,0-120.6,0-180.9,0c-3.1,0-6.4,0.7-9.1-1.6c1.7-0.3,3.4-0.9,5.2-0.9c20.3-0.1,40.5-0.1,60.8-0.1
		c44.7,0,89.3,0,134,0c43,0,86,0,129,0c43,0,86,0,129,0c42.7,0,85.3,0,128,0c18.3,0,36.5,0,54.8,0.1
		C714.4,67.1,716.1,67.8,717.8,68.1z"/>
	<path class="st34" d="M491.8,635.1c-2-2-4-4-6-6c1.9-1.9,4.3-1.6,6.6-1.6c48.9,0,97.9,0,146.8,0c2.3,0,4.7-0.1,6.6,1.6
		c2,1.7,4,3.3,6,5c-1.9,0.3-3.8,0.9-5.7,0.9C594.7,635.1,543.3,635.1,491.8,635.1z"/>
	<path class="st35" d="M476.8,620.1c-1.7-1.7-3.3-3.3-5-5c1.7-1.7,3.9-1.6,6.1-1.6c49.4-0.1,98.8,0,148.2,0c2.4,0,4.6,0.3,6.7,1.6
		c0.3,0,0.7,0.1,1,0.1c2,2.3,4,4.7,6,7c-0.3,2.3-2.2,2.2-3.7,2.4c-2.1,0.3-4.3,0.2-6.5,0.2c-43.6,0-87.3-0.2-130.9,0.2
		C490.8,624.9,484,622.1,476.8,620.1z"/>
	<path class="st36" d="M476.8,620.1c2.5,0,5-0.2,7.5,0.1c0.7,0.1,5.1-2.3,2.3,2.1c0.5,0.3,1,0.7,1.6,0.8c1,0.1,2,0,3,0
		c47.8,0,95.6,0,143.5,0c1.7,0,3.5-0.6,5.2-0.9c2,2.3,4,4.7,6,7c-53.3,0-106.7,0-160,0c-1.3-1-2.7-2-4-3
		C480.2,624.1,478.5,622.1,476.8,620.1z"/>
	<path class="st37" d="M632.8,615c-53.7,0-107.3,0.1-161,0.1c-0.3,0-0.7-0.1-1-0.1c-0.3-0.3-0.7-0.6-1-0.9c-1-1.3-2-2.6-2.9-4
		c54,0,107.9,0,161.9,0C630.1,611.7,631.5,613.4,632.8,615z"/>
	<path class="st38" d="M399.8,358.9c-29.6-0.4-58,5-84.6,18.1c-8.6,4.2-16.5,9.9-24.7,14.9c-3.3,0.9-6.2-0.5-9.3-1.2
		c-32.7-7-63.9-3.2-93.3,13c-6.8,3.7-12.5,8.8-17.6,14.6c-6.1,6.9-7.7,15.3-8,24.1c-0.2,5.2-0.1,10.3,0,15.5c0,7.4,0.3,7.7,7.5,7.7
		c20.5,0,41,0,61.4,0c5.3,0,10.7,0,16,0c2,0,4-0.2,5.6,1.5c-11.8,5.6-23.5,11.6-35.5,16.6c-24.1,9.9-48.7,18.3-74.2,23.7
		c-18.2,3.9-36.7,6.6-55,9.7c-5,0.9-10.1,1.3-15.2,2c0-43,0-86,0-129c5.1-2.4,10.6-2.4,16-3.3c37.4-6.3,73-18,107-34.7
		c5.5-2.7,10.8-5.9,16.3-8.8c1.8-0.9,3.4-2.2,5.5-2c2.5,0.6,3.6,2.8,5.2,4.5c11.5,11.7,28.7,15.4,43.1,9.2
		c15.9-6.8,25.3-21.5,24.5-38.6c-0.4-8-3.9-15-7.4-22c-0.3-3.5,2.5-5.3,4.6-7.3c20.5-19.7,38.6-41.4,54.1-65.2
		c28.4-43.5,46.9-91,55.9-142.2c0.5-3.1-0.2-6.9,3.7-8.7c2.5-0.6,5-0.5,7.5-0.5c37.1,0,74.3,0,111.4,0c3,0,6-0.5,8.7,1.4
		c0,0-0.1,0.3-0.1,0.3c-1.7,11.9-3.1,23.9-5.2,35.8c-4.6,25.5-11.3,50.4-19.9,74.8c-11.9,33.9-26.7,66.6-46.2,96.8
		c-11.4,17.8-23.9,35-36.3,52.2c-5.9,8.1-13.1,15.3-19.6,23.1C400.7,356,400.4,357.5,399.8,358.9z"/>
	<path class="st39" d="M399.8,72.3c-2.8,13.9-5,28-8.6,41.7c-9.3,35.9-24,69.6-43.7,101c-11.5,18.5-24.2,36-39.1,51.9
		c-7.2,7.6-14.5,15.1-21.6,22.7c-1.2,1.3-2,2.9-3,4.4c-0.5,0.3-0.9,0.3-1.4,0c-8.6-9.4-19.1-14.8-32-14.7
		c-27.8,0.3-46.5,30.2-34.8,55.3c0.9,2,2.1,3.8,2.6,5.9c0.1,0.5,0,1-0.4,1.4c-4.7,2.4-9.5,4.6-14.2,7.1
		c-30,16.3-61.8,27.8-95.2,34.9c-11.8,2.5-23.7,4-35.6,6c0-43,0-86,0-129c1.5-1.6,3.4-1.9,5.4-2.3c42.4-9,80.1-27.6,112.7-56.3
		c38.3-33.8,63.6-75.6,76.7-124.9c0.5-2.1,0.6-4.3,2.3-6c0.5-0.3,1.1-0.5,1.6-0.7c2-0.4,4-0.4,6-0.4c38.1,0,76.2,0,114.2,0
		C394.6,70.5,397.6,69.9,399.8,72.3z"/>
	<path class="st40" d="M269.9,72.3c-2.9,10-5.2,20.2-8.8,30c-9.1,25.1-22.1,48.2-38.9,69.2c-18.1,22.6-39.4,41.6-63.9,56.9
		c-23.9,14.9-49.7,25.1-77.2,31.2c-2.7,0.6-5.5,1.1-8.3,1.6c0-42.5,0-84.9-0.1-127.4c0-3.6,1.2-5.4,4.4-6.8
		c14.7-6.6,28.1-15.3,38.7-27.6c7.2-8.3,12.8-18,19.1-27.1c1.8-2,4.2-1.8,6.5-1.8c40.7-0.1,81.4-0.1,122.1,0
		C265.7,70.5,268.1,70.2,269.9,72.3z"/>
	<path class="st41" d="M269.9,72.3c-28.7-0.1-57.5-0.1-86.2-0.2c-16.3,0-32.6,0.1-48.8,0.2c-21,0-41.9,0.1-62.9,0.1
		c0-1.4-0.1-2.8-0.1-4.2c66.3,0,132.6,0,199,0c1.2,1.7,0.9,3-1,3.8L269.9,72.3z"/>
	<path class="st31" d="M252.8,467.1c-28.5,0-56.9,0-85.4-0.1c-6.5,0-6.6,0-6.5-6.7c0.1-8.1,0.5-16.3,0.7-24.4
		c0.4-12.6,8.1-20.8,17.3-27.8c16.4-12.6,35.4-18.5,55.6-21.1c19-2.4,37.7-1.2,56,4.8c-4.6,5.2-9.6,10.1-13.7,15.6
		c-5.6,7.4-7.9,16-7.9,25.3c0.1,9.7,0,19.3,0.1,29c0,1.7,0.6,3.5,1,5.2C264.3,467,258.6,467.1,252.8,467.1z"/>
	<path class="st31" d="M539.8,386.1c-7.4,9.7-14.8,19.4-22.3,29.1c-4.6-9-10.9-16.7-18.7-23.1C512.1,387.4,525.8,385.6,539.8,386.1z
		"/>
	<path class="st42" d="M269.8,71.9c0.3-1.3,0.7-2.6,1-3.8c86.3,0,172.7,0,259,0c-0.3,1.3-0.6,2.6-0.9,3.8
		C499,72,469.1,72,439.2,72.1c-13.1,0-26.2,0.1-39.4,0.2c-40.7-0.1-81.4-0.1-122.1-0.2C275.1,72.1,272.5,72,269.8,71.9z"/>
	<path class="st27" d="M394.7,323.2c-29.9,0-53.9-24.2-53.9-54.1c0.1-29.8,24.4-54,54.1-53.9c29.8,0.1,53.9,24.4,53.9,54.2
		C448.8,299.3,424.7,323.3,394.7,323.2z"/>
	<path class="st31" d="M282.9,294c0.3,0,0.6,0,0.9,0.1c10.8,16.4,10.7,34.4-0.1,48.8c-16.3,21.5-47.6,21.9-64.6,0.7
		c-0.4-0.5-0.9-1-1.3-1.5c0-0.3,0-0.7,0-1c1-1.9,2.9-2.6,4.6-3.6c19.2-11.9,37.5-25,54.2-40.3C278.4,295.6,280,293.4,282.9,294z"/>
	<path class="st43" d="M282.9,294c-11.1,8.9-21.9,18.3-33.4,26.6c-10.2,7.4-21.1,13.7-31.7,20.4c-16.2-23.2-3.7-55.1,24.4-61.9
		c14.8-3.6,27.4,1.1,38.3,11.2C281.5,291.4,282.1,292.8,282.9,294z"/>
</g>
</svg>
